<?xml version="1.0"?>
<svg xmlns="http://www.w3.org/2000/svg" xmlns:xlink="http://www.w3.org/1999/xlink" version="1.1" viewBox="0 0 224 224" width="480px" height="480px"><g fill="none" fill-rule="nonzero" stroke="none" stroke-width="1" stroke-linecap="butt" stroke-linejoin="miter" stroke-miterlimit="10" stroke-dasharray="" stroke-dashoffset="0" font-family="none" font-weight="none" font-size="none" text-anchor="none" style="mix-blend-mode: normal"><path d="M0,224v-224h224v224z" fill="none"/><path d="M112,224c-61.85589,0 -112,-50.14411 -112,-112v0c0,-61.85589 50.14411,-112 112,-112v0c61.85589,0 112,50.14411 112,112v0c0,61.85589 -50.14411,112 -112,112z" fill="#34495e"/><g id="Layer_1"><rect x="8.37363" y="8.37363" transform="scale(4.24667,4.24667)" width="36" height="36" fill="#34495e"/><path d="M155.08668,78.99915l7.87332,-7.87332v-1.5925h-28.18088l-20.8936,50.07245l-22.01472,-50.07245h-30.8308v1.5925l8.00072,9.60171c0.3185,0.3822 0.49261,0.86207 0.49261,1.35893v52.17455c0,0.77714 -0.26754,1.5288 -0.75166,2.13183l-9.86501,12.2304v1.59675h29.72667v-1.5925l-9.8735,-12.34081c-0.47987,-0.60303 -0.74317,-1.35044 -0.74317,-2.12333v-44.56452l27.03003,60.62117h5.3508l22.82583,-54.85419v42.82763c0,0.56481 -0.22507,1.10413 -0.62001,1.49907l-8.93499,8.93499v1.5925h39.28167v-1.5925l-7.87332,-7.87332c-0.39494,-0.39494 -0.62001,-0.93427 -0.62001,-1.49907v-58.75688c0,-0.56481 0.22507,-1.10413 0.62001,-1.49907z" fill="#ffffff"/></g></g></svg>
